<?xml version="1.0" encoding="UTF-8"?>
<svg width="658px" height="324px" viewBox="0 0 658 324" version="1.1" xmlns="http://www.w3.org/2000/svg" xmlns:xlink="http://www.w3.org/1999/xlink">
    <!-- Generator: Sketch 53 (72520) - https://sketchapp.com -->
    <title>login-background</title>
    <desc>Created with Sketch.</desc>
    <g id="Page-1" stroke="none" stroke-width="1" fill="none" fill-rule="evenodd">
        <g id="Artboard" transform="translate(-127.000000, -94.000000)">
            <g id="login-background" transform="translate(127.000000, 94.000000)">
                <path d="M244.5,105 C248.089851,105 251,107.910149 251,111.5 C251,115.089851 248.089851,118 244.5,118 L144.5,118 C140.910149,118 138,115.089851 138,111.5 C138,107.910149 140.910149,105 144.5,105 L174.5,105 C178.642136,105 182,101.642136 182,97.5 C182,93.3578644 178.642136,90 174.5,90 L133.5,90 L88.5,90 C84.3578644,90 81,86.6421356 81,82.5 C81,78.3578644 84.3578644,75 88.5,75 L135,75 L151,75 C155.970563,75 160,70.9705627 160,66 C160,61.0294373 155.970563,57 151,57 L134.25,57 L133.5,57 C129.357864,57 126,53.6421356 126,49.5 C126,45.3578644 129.357864,42 133.5,42 L243.5,42 C247.642136,42 251,45.3578644 251,49.5 C251,53.6421356 247.642136,57 243.5,57 L242,57 L221,57 C216.029437,57 212,61.0294373 212,66 C212,70.9705627 216.029437,75 221,75 L242,75 L267.5,75 C271.642136,75 275,78.3578644 275,82.5 C275,86.6421356 271.642136,90 267.5,90 L235.5,90 C231.357864,90 228,93.3578644 228,97.5 C228,101.642136 231.357864,105 235.5,105 L244.5,105 Z" id="Combined-Shape" fill="#4285F5"></path>
                <path d="M266.5,298 C270.089851,298 273,300.910149 273,304.5 C273,308.089851 270.089851,311 266.5,311 L166.5,311 C162.910149,311 160,308.089851 160,304.5 C160,300.910149 162.910149,298 166.5,298 L196.5,298 C200.642136,298 204,294.642136 204,290.5 C204,286.357864 200.642136,283 196.5,283 L155.5,283 L110.5,283 C106.357864,283 103,279.642136 103,275.5 C103,271.357864 106.357864,268 110.5,268 L157,268 L173,268 C177.970563,268 182,263.970563 182,259 C182,254.029437 177.970563,250 173,250 L156.25,250 L155.5,250 C151.357864,250 148,246.642136 148,242.5 C148,238.357864 151.357864,235 155.5,235 L265.5,235 C269.642136,235 273,238.357864 273,242.5 C273,246.642136 269.642136,250 265.5,250 L264,250 L243,250 C238.029437,250 234,254.029437 234,259 C234,263.970563 238.029437,268 243,268 L264,268 L289.5,268 C293.642136,268 297,271.357864 297,275.5 C297,279.642136 293.642136,283 289.5,283 L257.5,283 C253.357864,283 250,286.357864 250,290.5 C250,294.642136 253.357864,298 257.5,298 L266.5,298 Z" id="Combined-Shape" fill="#EAEEF4"></path>
                <path d="M603,238 L618,238 C622.970563,238 627,242.029437 627,247 C627,251.970563 622.970563,256 618,256 L455,256 C450.029437,256 446,251.970563 446,247 C446,242.029437 450.029437,238 455,238 L473,238 C475.761424,238 478,235.761424 478,233 C478,230.238576 475.761424,228 473,228 L448,228 L425.5,228 C421.357864,228 418,224.642136 418,220.5 C418,216.357864 421.357864,213 425.5,213 L449,213 L461,213 C464.313708,213 467,210.313708 467,207 C467,203.686292 464.313708,201 461,201 L441.75,201 L434.5,201 C430.357864,201 427,197.642136 427,193.5 C427,189.357864 430.357864,186 434.5,186 L560.5,186 C564.642136,186 568,189.357864 568,193.5 C568,197.642136 564.642136,201 560.5,201 L529,201 C525.686292,201 523,203.686292 523,207 C523,210.313708 525.686292,213 529,213 L562,213 L578.5,213 C582.642136,213 586,216.357864 586,220.5 C586,224.642136 582.642136,228 578.5,228 L560,228 C557.238576,228 555,230.238576 555,233 C555,235.761424 557.238576,238 560,238 L603,238 Z" id="Combined-Shape" fill="#000000"></path>
                <path d="M588.5,78 L602.5,78 C606.642136,78 610,81.3578644 610,85.5 C610,89.6421356 606.642136,93 602.5,93 L550.5,93 L518.5,93 C514.910149,93 512,95.9101491 512,99.5 C512,103.089851 514.910149,106 518.5,106 L547.75,106 L545,106 C549.418278,106 553,109.581722 553,114 C553,118.418278 549.418278,122 545,122 L445,122 C440.581722,122 437,118.418278 437,114 C437,109.581722 440.581722,106 445,106 L459.5,106 C463.089851,106 466,103.089851 466,99.5 C466,95.9101491 463.089851,93 459.5,93 L438.5,93 L414.5,93 C410.357864,93 407,89.6421356 407,85.5 C407,81.3578644 410.357864,78 414.5,78 L440.5,78 L464.5,78 C469.19442,78 473,74.1944204 473,69.5 C473,64.8055796 469.19442,61 464.5,61 L442.5,61 C438.357864,61 435,57.6421356 435,53.5 C435,49.3578644 438.357864,46 442.5,46 L557.5,46 C561.642136,46 565,49.3578644 565,53.5 C565,57.6421356 561.642136,61 557.5,61 L538.5,61 C533.80558,61 530,64.8055796 530,69.5 C530,74.1944204 533.80558,78 538.5,78 L588.5,78 Z" id="Combined-Shape" fill="#CFD5DD"></path>
                <rect id="Rectangle-Copy-56" fill="#EAEEF4" transform="translate(649.500000, 69.500000) scale(1, -1) translate(-649.500000, -69.500000) " x="641" y="61" width="17" height="17" rx="8">
                </rect>
                <rect id="Rectangle-Copy-53" fill="#4285F5" transform="translate(583.500000, 53.500000) scale(1, -1) translate(-583.500000, -53.500000) " x="576" y="46" width="15" height="15" rx="7.5"></rect>
                <rect id="Rectangle-Copy-33" fill="#EAEEF4" x="581" y="147" width="51" height="15" rx="7.5">
                <animate attributeType="XML" attributeName="width" from="0" to="51"
                 dur="3" />
                </rect>
                <rect id="Rectangle-Copy-54" fill="#EAEEF4" x="546" y="0" width="51" height="12" rx="6"></rect>
                <rect id="Rectangle-Copy-34" fill="#EAEEF4" x="559" y="147" width="15" height="15" rx="7.5"></rect>
                <rect id="Rectangle-Copy-55" fill="#EAEEF4" x="605" y="0" width="12" height="12" rx="6"></rect>
                <rect id="Rectangle-Copy-14" fill="#EAEEF4" x="87" y="6" width="54" height="15" rx="7.5"></rect>
                <rect id="Rectangle-Copy-16" fill="#EAEEF4" x="151" y="6" width="15" height="15" rx="7.5"></rect>
                <rect id="Rectangle-Copy-12" fill="#CFD5DD" x="20" y="42" width="92" height="15" rx="7.5"></rect>
                <rect id="Rectangle-Copy-21" fill="#000000" x="208" y="235" width="60" height="15" rx="7.5">
                <animate attributeType="XML" attributeName="width" from="0" to="60"
                 dur="3" /></rect>
                <rect id="Rectangle-Copy-13" fill="#CFD5DD" x="0" y="42" width="15" height="15" rx="7.5"></rect>
                <rect id="Rectangle-Copy-22" fill="#000000" x="188" y="235" width="15" height="15" rx="7.5"></rect>
                <rect id="Rectangle-Copy-18" fill="#000000" x="192" y="174" width="15" height="15" rx="7.5"></rect>
                <rect id="Rectangle-Copy-19" fill="#EAEEF4" x="90" y="211" width="15" height="15" rx="7.5"></rect>
                <rect id="Rectangle-Copy-43" fill="#4285F5" x="606" y="215" width="10" height="10" rx="5"></rect>
                <rect id="Rectangle-Copy-15" fill="#000000" x="92" y="142" width="37" height="11" rx="5.5"></rect>
                <rect id="Rectangle-Copy-17" fill="#000000" x="141" y="192" width="48" height="11" rx="5.5"></rect>
                <rect id="Rectangle-Copy-11" fill="#CFD5DD" x="116" y="105" width="13" height="13" rx="6.5"></rect>
                <rect id="Rectangle-Copy-20" fill="#4285F5" x="63" y="175" width="13" height="13" rx="6.5"></rect>
                <circle id="Oval" fill="#EFF3F6" opacity="0.455031622" cx="179" cy="98" r="38"></circle>
                <circle id="Oval-Copy-2" fill="#EFF3F6" opacity="0.455031622" cx="521" cy="280" r="44"></circle>
            </g>
        </g>
    </g>
</svg>